<?xml version="1.0" encoding="UTF-8"?> <svg xmlns="http://www.w3.org/2000/svg" width="166" height="41" viewBox="0 0 166 41" fill="none"><path d="M15.3338 19.2666L12.59 40.7098H6.57568L9.28475 19.2666H15.3338Z" fill="white"></path><path d="M26.2226 25.992C26.6914 25.1938 27.1951 24.5073 27.7276 23.9325C28.2602 23.3632 28.8101 22.9111 29.3716 22.5985C29.9331 22.2804 30.5119 22.1018 31.0966 22.0627C31.6812 22.0181 32.2717 22.1353 32.8621 22.3976L31.8259 27.5324C31.1197 27.2477 30.4656 27.1138 29.852 27.1417C29.2384 27.164 28.6769 27.3705 28.1618 27.7501C27.6466 28.1296 27.1835 28.7045 26.7725 29.4691C26.3557 30.2337 25.9968 31.2104 25.7016 32.4048L24.6654 40.7209H19.0273L21.3659 22.1744H24.3355C24.9317 22.1744 25.3948 22.3083 25.7248 22.5762C26.0605 22.8441 26.2284 23.285 26.2284 23.8934V25.992H26.2226Z" fill="white"></path><path d="M138.195 25.992C138.664 25.1938 139.168 24.5073 139.7 23.9325C140.233 23.3632 140.783 22.9111 141.344 22.5985C141.906 22.2804 142.485 22.1018 143.069 22.0627C143.654 22.0181 144.244 22.1353 144.835 22.3976L143.799 27.5324C143.092 27.2477 142.438 27.1138 141.825 27.1417C141.211 27.164 140.65 27.3705 140.134 27.7501C139.619 28.1296 139.156 28.7045 138.745 29.4691C138.328 30.2337 137.969 31.2104 137.674 32.4048L136.638 40.7209H131L133.339 22.1744H136.308C136.904 22.1744 137.367 22.3083 137.697 22.5762C138.033 22.8441 138.201 23.285 138.201 23.8934V25.992H138.195Z" fill="white"></path><path d="M43.1599 37.6178C42.3784 38.667 41.5101 39.4875 40.5376 40.0903C39.5651 40.693 38.4943 40.9944 37.3365 40.9944C36.6419 40.9944 35.9762 40.8549 35.3337 40.587C34.6911 40.3191 34.1239 39.9117 33.626 39.3703C33.134 38.8289 32.7346 38.1368 32.4394 37.2941C32.1442 36.4513 31.9937 35.4634 31.9937 34.3192C31.9937 32.6393 32.3178 31.0374 32.9546 29.5305C33.5913 28.0236 34.4827 26.7064 35.6231 25.5734C36.7692 24.4404 38.1238 23.5418 39.6925 22.8721C41.2612 22.2023 42.9862 21.8674 44.8675 21.8674C45.7821 21.8674 46.7083 21.9288 47.6518 22.046C48.5896 22.1632 49.5215 22.3809 50.4361 22.6879L48.0975 40.6986H45.018C44.6591 40.6986 44.3639 40.6484 44.1208 40.5591C43.8776 40.4698 43.6866 40.3526 43.5477 40.1963C43.403 40.04 43.3046 39.8559 43.2525 39.6438C43.1946 39.4317 43.1657 39.1973 43.1657 38.9461V37.6178H43.1599ZM44.0513 25.685C43.1136 25.685 42.2568 25.8859 41.487 26.2934C40.7113 26.7008 40.0456 27.2478 39.4899 27.9454C38.9342 28.6431 38.5058 29.4524 38.2048 30.3789C37.9038 31.3054 37.7475 32.2932 37.7475 33.3425C37.7475 33.9397 37.7996 34.4476 37.898 34.8606C37.9964 35.2792 38.1354 35.6141 38.2974 35.8708C38.4653 36.1276 38.6621 36.3173 38.8937 36.4345C39.1252 36.5517 39.3683 36.6131 39.6404 36.6131C40.063 36.6131 40.4682 36.4569 40.8676 36.1555C41.2612 35.8485 41.6432 35.4411 41.9906 34.9164C42.3437 34.3918 42.662 33.7779 42.963 33.0746C43.2583 32.3714 43.513 31.6179 43.7214 30.8198L44.4102 25.685H44.0513Z" fill="white"></path><path d="M61.6949 40.7098H56.8325L52.1553 22.1633H56.9019C57.2955 22.1633 57.6139 22.2526 57.8397 22.4368C58.0712 22.6209 58.2101 22.8553 58.2738 23.1288L59.5357 31.4449C59.6457 32.1482 59.7383 32.8347 59.8136 33.51C59.8888 34.1853 59.8657 33.8449 59.9178 34.5258C70.7367 9.1924 100.357 4.34228 127.002 5.26877C92.085 7.03803 72.8206 14.0872 61.6949 40.7098Z" fill="#FFC219"></path><path d="M86.4411 37.2774C85.7581 37.9192 85.0982 38.4773 84.4499 38.9462C83.8015 39.415 83.1301 39.8057 82.447 40.1071C81.7582 40.4085 81.0288 40.6373 80.2589 40.7824C79.4833 40.9275 78.6381 40.9945 77.7235 40.9945C76.5832 40.9945 75.5412 40.8047 74.5861 40.4308C73.6368 40.0568 72.8148 39.5266 72.1317 38.8401C71.4429 38.1536 70.9161 37.3332 70.5341 36.3676C70.1578 35.4021 69.9668 34.3305 69.9668 33.1472C69.9668 32.1593 70.0826 31.1938 70.3141 30.2506C70.5457 29.3073 70.8698 28.4199 71.2982 27.5939C71.7265 26.7678 72.2417 26.0032 72.8611 25.3056C73.4805 24.6079 74.1809 24.0107 74.9508 23.5084C75.7265 23.0061 76.5716 22.6154 77.492 22.3363C78.4124 22.0573 79.3906 21.9177 80.4268 21.9177C81.4514 21.9177 82.366 22.0628 83.1648 22.3475C83.9636 22.6321 84.6293 23.0061 85.1734 23.4637C85.7176 23.9214 86.1344 24.4405 86.418 25.0153C86.7016 25.5902 86.8464 26.1595 86.8464 26.7344C86.8464 27.5827 86.6727 28.3473 86.3254 29.045C85.9781 29.7427 85.3818 30.3678 84.5193 30.9147C83.6626 31.4617 82.5049 31.9305 81.052 32.31C79.599 32.6896 77.7698 32.991 75.5644 33.203C75.5875 34.4644 75.8827 35.3909 76.4327 35.9769C76.9826 36.563 77.793 36.8532 78.8697 36.8532C79.3791 36.8532 79.8132 36.8085 80.1837 36.7304C80.5541 36.6467 80.8841 36.5406 81.1619 36.4067C81.4398 36.2727 81.6887 36.1388 81.9087 35.9937C82.1286 35.8486 82.3486 35.7146 82.5512 35.5807C82.7538 35.4523 82.968 35.3407 83.188 35.257C83.4079 35.1732 83.6626 35.1342 83.9463 35.1342C84.1315 35.1342 84.3109 35.1788 84.4846 35.2625C84.6583 35.3518 84.8146 35.469 84.9477 35.6142L86.4411 37.2774ZM80.0968 25.6516C79.1417 25.6516 78.3082 26.0144 77.5904 26.7511C76.8726 27.4822 76.34 28.4925 75.9927 29.7706C77.1794 29.592 78.1461 29.4022 78.887 29.1957C79.628 28.9948 80.2068 28.7715 80.612 28.5427C81.0172 28.3083 81.3009 28.0683 81.4398 27.806C81.5845 27.5436 81.6482 27.259 81.6482 26.9464C81.6482 26.6339 81.5266 26.3437 81.2777 26.0702C81.0346 25.7911 80.641 25.6516 80.0968 25.6516Z" fill="white"></path><path d="M88.2065 40.7097L91.4887 14.6508H97.1673L93.8794 40.7097H88.2065Z" fill="white"></path><path d="M110.539 14.6508C112.108 14.6508 113.457 14.7959 114.58 15.0805C115.697 15.3652 116.617 15.7726 117.323 16.3028C118.035 16.833 118.556 17.4693 118.881 18.2172C119.21 18.9595 119.367 19.7911 119.367 20.6953C119.367 21.4097 119.274 22.0962 119.083 22.7603C118.892 23.4245 118.591 24.0385 118.174 24.5966C117.758 25.1547 117.231 25.6626 116.577 26.1147C115.928 26.5668 115.135 26.9575 114.209 27.2756C115.668 27.6551 116.745 28.2467 117.439 29.0504C118.134 29.8541 118.475 30.8755 118.475 32.1034C118.475 33.3089 118.238 34.4308 117.763 35.4745C117.289 36.5182 116.594 37.4279 115.691 38.2037C114.788 38.9795 113.694 39.5879 112.403 40.0344C111.112 40.4809 109.648 40.7097 108.015 40.7097H97.9258L101.266 14.6508H110.539ZM106.719 18.9986L105.868 25.724H108.762C109.445 25.724 110.053 25.657 110.597 25.5286C111.141 25.3947 111.61 25.1714 111.998 24.8533C112.386 24.5352 112.687 24.1222 112.895 23.5975C113.103 23.0729 113.213 22.4255 113.213 21.6497C113.213 20.6841 112.953 19.9976 112.426 19.6013C111.899 19.1995 111.083 19.0041 109.983 19.0041H106.719V18.9986ZM108.502 36.3284C109.242 36.3284 109.868 36.2224 110.377 36.0103C110.886 35.8038 111.297 35.508 111.616 35.134C111.928 34.7601 112.16 34.3247 112.305 33.8224C112.449 33.3201 112.513 32.7731 112.513 32.1759C112.513 31.7852 112.461 31.4225 112.357 31.1043C112.253 30.7806 112.073 30.5071 111.818 30.2895C111.564 30.0662 111.228 29.8932 110.817 29.7704C110.4 29.6476 109.891 29.5862 109.283 29.5862H105.387L104.536 36.3284H108.502Z" fill="white"></path><path d="M128.767 19.1493L129.335 14.6508H123.656L123.089 19.1493H128.767ZM128.368 22.1631L126.07 40.7097H120.391L122.689 22.1631H128.368Z" fill="white"></path><path fill-rule="evenodd" clip-rule="evenodd" d="M23.467 14.6508L22.6855 19.9809H0L0.781461 14.6508H23.467Z" fill="white"></path><path fill-rule="evenodd" clip-rule="evenodd" d="M121.086 4.15804L118.521 0L135.262 5.96638L119.708 10.3756L120.791 7.65192L119.216 7.55704L121.786 5.15151L126.776 5.19616L121.086 4.15804Z" fill="#FFC219"></path><path d="M165.069 13.9365L161.619 40.7154H158.54C158.181 40.7154 157.885 40.6652 157.642 40.5759C157.399 40.4866 157.208 40.3694 157.069 40.2131C156.925 40.0569 156.826 39.8727 156.774 39.6606C156.716 39.4485 156.687 39.2141 156.687 38.9629V37.4058C155.807 38.5276 154.841 39.4038 153.776 40.0401C152.71 40.6764 151.582 41.0001 150.383 41.0001C149.59 41.0001 148.867 40.8606 148.213 40.5927C147.559 40.3248 146.997 39.9062 146.517 39.3369C146.042 38.7676 145.671 38.0309 145.405 37.1434C145.139 36.256 145 35.1956 145 33.9565C145 32.8849 145.116 31.8356 145.353 30.8143C145.59 29.7929 145.915 28.8385 146.337 27.9455C146.76 27.0525 147.258 26.2265 147.842 25.4842C148.421 24.7363 149.069 24.1 149.764 23.5698C150.464 23.0396 151.2 22.6266 151.975 22.3307C152.757 22.0349 153.556 21.8842 154.389 21.8842C155.194 21.8842 155.912 22.007 156.542 22.2582C157.173 22.5093 157.729 22.8498 158.21 23.2796L159.437 13.9421H165.069V13.9365ZM157.758 26.7232C157.399 26.4386 157.006 26.2321 156.566 26.1204C156.126 26.0088 155.709 25.953 155.31 25.953C154.644 25.953 154.03 26.1651 153.469 26.5948C152.907 27.0246 152.415 27.5827 152.01 28.2804C151.605 28.978 151.286 29.7762 151.061 30.6692C150.829 31.5622 150.713 32.4775 150.713 33.404C150.713 34.5872 150.893 35.4356 151.252 35.9658C151.611 36.496 152.085 36.7639 152.681 36.7639C153.075 36.7639 153.492 36.6188 153.92 36.3341C154.349 36.0495 154.76 35.6532 155.165 35.1509C155.564 34.6486 155.946 34.057 156.294 33.3872C156.647 32.7119 156.942 31.9919 157.191 31.2161L157.758 26.7232Z" fill="white"></path></svg> 